<?xml version="1.0" encoding="utf-8"?>
<!-- Generator: Adobe Illustrator 16.0.0, SVG Export Plug-In . SVG Version: 6.00 Build 0)  -->
<!DOCTYPE svg PUBLIC "-//W3C//DTD SVG 1.1//EN" "http://www.w3.org/Graphics/SVG/1.1/DTD/svg11.dtd">
<svg version="1.1" id="Layer_1" xmlns="http://www.w3.org/2000/svg" xmlns:xlink="http://www.w3.org/1999/xlink" x="0px" y="0px"
	 width="386.523px" height="254.084px" viewBox="0 0 386.523 254.084" enable-background="new 0 0 386.523 254.084"
	 xml:space="preserve">
<path fill="#1D1D1B" stroke="none" stroke-width="4" stroke-miterlimit="10" d="M215.779,96.438
	c8.096-0.283,16.364-4.173,24.068-11.346c5.421-4.808,10.183-11.077,13.878-17.819c0.873,1.26,1.759,2.387,2.581,3.437
	c2.354,2.919,3.77,4.821,3.869,7.669c0.146,4.197-3.036,7.61-7.233,7.757c-2.548,0.089-4.429,2.106-4.34,4.654
	s2.106,4.429,4.653,4.34c0.149-0.005,0.301-0.011,0.451-0.016c8.336-0.435,15.848-4.611,22.211-10.585
	c1.792,5.62,7.104,9.561,13.314,9.344c5.098-0.178,9.667-2.588,13.422-6.772c2.738-3.247,4.266-6.753,5.109-8.433
	c0,0,0,0,2.789-6.101c0.975-2.135-0.02-4.802-2.311-5.923c-2.133-0.976-4.802,0.017-5.922,2.308
	c-2.787,6.101-2.787,6.101-2.787,6.101c-1.809,4.115-5.068,9.632-10.615,9.826c-2.547,0.089-4.563-1.792-4.652-4.34
	c-0.042-1.199-0.069-1.949,0.908-4.084c0,0,0.002-0.004,6.209-13.633c0.261-0.541,0.516-1.081,0.762-1.619
	c0.031-0.067,0.043-0.139,0.069-0.207c2.942-6.462,7.114-15.623,13.032-28.617c2.869,0.501,5.877,0.695,8.875,0.591
	c10.195-0.356,16.365-4.174,20.135-12.26c0.975-2.135-0.018-4.802-2.309-5.922c-2.135-0.976-4.803,0.017-5.922,2.308
	c-1.959,4.12-4.572,6.613-12.219,6.88c-1.498,0.052-3.002-0.046-4.656-0.138l8.092-17.542c0.977-2.136-0.018-4.802-2.307-5.923
	c-2.137-0.976-4.803,0.018-5.924,2.308l-8.924,19.523c-2.271-0.522-4.395-1.198-6.67-1.869c-7.424-1.991-15.002-4.129-23.246-3.841
	c-10.193,0.356-16.363,4.174-20.135,12.26c-0.975,2.135,0.02,4.802,2.31,5.923c0.61,0.279,1.215,0.408,1.964,0.382
	c1.648-0.058,3.268-1.015,3.959-2.69c1.957-4.12,4.57-6.613,12.217-6.88c6.745-0.235,13.414,1.633,20.389,3.641
	c1.814,0.386,3.635,0.923,5.455,1.46c-5.532,12.057-9.484,20.669-12.31,26.826c-0.033,0.06-0.076,0.111-0.106,0.173
	c-3.353,7.171-8.472,15.304-14.729,20.926c-0.005-0.15-0.011-0.3-0.017-0.45c-0.209-5.996-3.348-9.939-5.855-13.003
	c-2.354-2.919-3.77-4.821-3.87-7.669c-0.084-2.399,1.792-4.565,4.341-4.654c2.549-0.089,4.428-2.107,4.34-4.655
	c-0.09-2.548-2.105-4.429-4.654-4.34c-0.149,0.006-0.301,0.011-0.449,0.016l-0.15,0.005c-0.15,0.005-0.15,0.005-0.3,0.01
	c-5.086,0.478-9.473,3.783-11.843,8.969l-2.779,6.079c-0.003,0.007-0.008,0.013-0.012,0.02c-6.27,13.878-19.578,28.15-32.471,28.6
	c-4.197,0.147-7.61-3.036-7.756-7.233c-0.026-0.75-0.047-1.349,0.226-2.109c2.673-0.844,7.269-2.505,11.841-4.766
	c4.285-1.951,7.803-4.325,10.273-6.663c3.627-3.578,5.445-7.394,5.304-11.441l-0.005-0.15c-0.35-5.691-5.003-10.031-10.705-9.982
	l-0.148,0.005c-5.099,0.178-9.666,2.588-13.422,6.772c-2.738,3.247-4.267,6.753-5.109,8.433c0,0,0,0-5.576,12.202
	c-1.674,3.661-1.744,5.914-1.672,8.013C199.035,89.668,206.635,96.757,215.779,96.438z M214.193,63.925
	c2.23-4.88,5.367-9.642,10.613-9.825c0.749-0.026,1.525,0.696,1.551,1.446c0.1,2.848-3.678,6.432-10.468,9.671
	c-0.884,0.481-1.918,0.968-2.952,1.454L214.193,63.925z"/>
<path fill="#1D1D1B" stroke="none" stroke-width="2" stroke-miterlimit="10" d="M317.277,109.851
	c0.244,0.112,0.486,0.163,0.785,0.153c0.66-0.023,1.309-0.405,1.584-1.076l3.4-7.503l3.719-0.129
	c1.018-0.036,1.771-0.842,1.734-1.862c-0.035-1.02-0.84-1.772-1.861-1.736l-9.594,0.335c-1.018,0.035-1.77,0.841-1.734,1.861
	c0.035,1.019,0.842,1.772,1.861,1.736l1.857-0.065l-2.676,5.917C315.964,108.336,316.361,109.403,317.277,109.851z"/>
<path fill="#1D1D1B" stroke="none" stroke-width="2" stroke-miterlimit="10" d="M332.22,97.682c-0.854-0.391-1.92,0.007-2.369,0.923
	l-3.902,8.541c-0.391,0.855,0.006,1.921,0.922,2.369c0.244,0.111,0.486,0.163,0.787,0.153c0.658-0.023,1.307-0.406,1.582-1.076
	l2.398-5.246l0.834,1.532l0.002,0.06c0.062,0.058,0.064,0.118,0.127,0.176c0.375,0.467,0.926,0.748,1.525,0.727
	c0.359-0.012,0.656-0.142,1.008-0.335l1.523-1.074l-1.117,2.38c-0.389,0.854,0.008,1.921,0.924,2.369
	c0.244,0.111,0.486,0.163,0.785,0.153c0.66-0.023,1.307-0.406,1.584-1.076l3.904-8.541c0.391-0.854-0.008-1.921-0.924-2.37
	c-0.609-0.279-1.268-0.196-1.795,0.182c0,0,0,0-5.328,3.849l-1.602-2.886C332.896,98.139,332.587,97.849,332.22,97.682z"/>
<path fill="#1D1D1B" stroke="none" stroke-width="4" stroke-miterlimit="10" d="M183.093,62.622
	c5.255-4.236,8.623-10.958,8.366-18.303c-0.377-10.793-9.375-19.184-20.168-18.807c-8.395,0.293-14.886,3.522-20.643,6.274
	c-3.984,1.94-7.375,3.709-10.523,3.819c-2.548,0.089-4.564-1.792-4.653-4.34c-0.089-2.548-2.106-4.429-4.654-4.34
	c-2.548,0.089-4.43,2.106-4.341,4.654c0.262,7.495,6.468,13.282,13.963,13.02c4.947-0.173,9.52-2.434,14.244-4.7
	c5.163-2.582,10.476-5.169,16.922-5.394c5.845-0.204,10.655,4.281,10.859,10.127c0.261,7.495-5.526,13.7-13.021,13.962
	c-2.548,0.089-4.43,2.106-4.34,4.654c0.089,2.548,2.105,4.429,4.654,4.34c7.494-0.262,13.7,5.525,13.962,13.02
	c0.095,2.698,0.173,4.946-2.197,10.132c-4.891,10.376-11.948,18.877-23.79,19.291c-8.095,0.283-14.072-3.26-19.62-7.419
	c2.417-3.836,4.095-7.347,5.066-9.632c0,0,0,0,19.521-42.705c0.975-2.136-0.018-4.802-2.309-5.923
	c-2.135-0.975-4.802,0.018-5.922,2.308l-19.521,42.706c-1.25,2.896-2.516,5.341-3.937,7.642c-4.777-3.585-9.839-6.71-15.985-6.496
	c-9.144,0.319-16.232,7.92-15.913,17.065c0.262,7.495,6.467,13.282,13.963,13.02c8.394-0.293,14.983-5.026,19.891-10.601
	c6.319,4.732,14.137,9.412,25.08,9.03c8.993-0.314,16.523-3.879,22.749-10.4c4.774-5.12,7.418-11.065,8.957-14.271
	c2.231-4.881,3.129-9.265,2.962-14.062C192.458,72.948,188.63,66.478,183.093,62.622z M112.763,111.602
	c-2.549,0.089-4.565-1.792-4.654-4.34c-0.148-4.197,3.036-7.611,7.233-7.757c3.448-0.12,6.824,2.013,10.526,4.885
	C122.401,108.263,118.008,111.418,112.763,111.602z"/>
<path fill="#1D1D1B" stroke="none" stroke-width="4" stroke-miterlimit="10" d="M81.694,204.248
	c4.774-5.12,7.418-11.065,8.957-14.271c7.39-16.168,7.107-24.263,6.83-32.207c-0.352-10.043-4.578-19.353-11.869-26.151
	c-7.292-6.799-16.872-10.368-26.915-10.016c-17.39,0.608-30.988,15.19-30.381,32.58c0.324,9.293,4.66,17.396,11.154,22.873
	l-3.624,7.932c-1.261,2.596-2.522,5.191-3.937,7.642c-4.777-3.585-9.839-6.711-15.985-6.496
	c-9.144,0.319-16.233,7.921-15.914,17.065c0.262,7.496,6.468,13.283,13.963,13.021c8.545-0.299,14.984-5.026,19.892-10.601
	c6.318,4.732,14.136,9.412,25.079,9.029C67.938,214.334,75.468,210.769,81.694,204.248z M13.66,207.224
	c-2.398,0.084-4.565-1.791-4.655-4.34c-0.147-4.197,3.036-7.611,7.234-7.757c3.447-0.121,6.823,2.013,10.526,4.886
	C23.297,203.885,18.906,207.041,13.66,207.224z M58.63,205.655c-8.095,0.281-14.072-3.262-19.62-7.42
	c2.417-3.838,4.094-7.348,5.066-9.633c0,0,0,0,3.067-6.711c4.121,1.957,8.805,2.844,13.751,2.672c2.549-0.09,4.43-2.105,4.34-4.653
	c-0.089-2.55-2.105-4.431-4.653-4.341c-3.448,0.121-6.773-0.514-9.673-1.914l12.688-27.758c0.975-2.135-0.018-4.803-2.309-5.924
	c-2.135-0.975-4.802,0.019-5.922,2.31l-11.991,26.233c-3.589-3.928-5.866-8.951-6.064-14.647
	c-0.435-12.442,9.258-22.836,21.7-23.271c15.74-0.55,28.926,11.746,29.476,27.486c0.398,11.393-2.306,19.891-6.066,28.277
	C79.631,192.463,73.77,205.125,58.63,205.655z"/>
<path fill="#1D1D1B" stroke="none" stroke-width="4" stroke-miterlimit="10" d="M326.521,218.644l-58.699,3.56
	c-2.544,0.147-4.369,2.356-4.229,4.752c0.148,2.545,2.207,4.378,4.753,4.231l58.696-3.559c2.547-0.148,4.379-2.208,4.232-4.754
	C331.132,220.479,329.066,218.498,326.521,218.644z"/>
<path fill="#1D1D1B" stroke="none" stroke-width="4" stroke-miterlimit="10" d="M366.72,201.392
	c-3.059,0.106-5.309,2.707-5.209,5.586c0.107,3.059,2.527,5.313,5.584,5.207c2.879-0.101,5.314-2.525,5.209-5.584
	C372.203,203.722,369.597,201.291,366.72,201.392z"/>
<path fill="#1D1D1B" stroke="none" stroke-width="4" stroke-miterlimit="10" d="M186.195,159.628
	c-2.286-0.971-4.952,0.023-6.073,2.312l-13.943,30.504c-1.957,4.121-5.066,9.633-10.612,9.826c-2.398,0.084-4.565-1.791-4.655-4.34
	c-0.041-1.199-0.067-1.949,0.914-3.935l12.543-27.604c0.977-2.135-0.016-4.803-2.157-5.928c-2.286-0.971-4.952,0.021-6.073,2.312
	l-11.032,24.135c-0.038,0.068-0.086,0.126-0.121,0.197c-2.789,6.102-2.789,6.102-2.789,6.102c-1.807,4.115-5.067,9.632-10.614,9.825
	c-2.548,0.089-4.563-1.791-4.653-4.341c-0.041-1.198-0.068-1.947,0.909-4.084c0,0,0,0,5.577-12.2c0,0,0,0,6.971-15.253
	c0.976-2.135-0.018-4.803-2.308-5.922c-2.135-0.977-4.802,0.018-5.924,2.308l-0.83,1.979c-2.648-2.758-6.304-4.282-10.201-4.146
	c-5.097,0.178-9.665,2.589-13.421,6.773c-2.739,3.246-4.267,6.752-5.109,8.433l-6.971,15.252c-1.673,3.661-1.745,5.914-1.672,8.013
	c0.262,7.496,6.468,13.283,13.962,13.021c4.797-0.168,9.227-2.273,12.843-6.151c2.52,3.363,6.646,5.47,11.142,5.313
	c4.803-0.168,9.126-2.338,12.753-6.085c2.555,3.371,6.647,5.479,11.23,5.319c0.6-0.021,1.199-0.043,1.799-0.063
	c-5.442,11.746-5.442,11.746-5.442,11.746c-7.112,15.558-10.344,21.823-19.188,22.133c-4.197,0.147-7.611-3.036-7.758-7.233
	s3.037-7.611,7.234-7.757c2.548-0.089,4.429-2.104,4.34-4.653c-0.089-2.549-2.106-4.43-4.654-4.34
	c-8.245,0.288-15.656,2.948-22.918,5.604c-6.971,2.345-13.494,4.673-20.239,4.908c-7.646,0.267-10.428-2.036-12.668-6.012
	c-1.127-2.212-4.007-3.012-6.069-1.889c-2.211,1.128-3.012,4.007-1.89,6.068c4.325,7.805,10.747,11.181,20.94,10.826
	c8.245-0.289,15.655-2.949,22.923-5.453c1.478-0.652,2.961-1.154,4.594-1.662c-0.397,1.516-0.645,3.025-0.587,4.674
	c0.319,9.145,7.92,16.232,17.065,15.913c7.046-0.246,12.353-2.982,16.812-8.541c3.74-4.634,6.674-10.89,10.294-18.97
	c0,0,0,0,9.197-20.283l6.143-13.12l12.543-27.604C189.329,163.421,188.336,160.754,186.195,159.628z M125.184,178.796
	c0,0,0,0-5.576,12.202c-2.64,6.094-5.712,12.655-12.009,12.876c-2.548,0.089-4.563-1.792-4.653-4.34
	c-0.041-1.199-0.068-1.949,0.909-4.084l6.971-15.253c1.807-4.114,5.067-9.632,10.613-9.825c2.398-0.084,4.57,1.941,4.654,4.34
	C126.135,175.911,126.161,176.661,125.184,178.796z"/>
<path fill="#1D1D1B" stroke="none" stroke-width="4" stroke-miterlimit="10" d="M372.951,150.683
	c-5.1,0.026-9.738,2.303-13.615,6.373c-2.832,3.164-4.463,6.622-5.355,8.276c0,0-0.03,0.071-0.083,0.189
	c-0.153,0.216-0.3,0.44-0.421,0.687c-0.933,2.064-2.023,4.136-3.243,6.17c-0.807,1.327-1.749,2.783-2.826,4.316
	c-6.982,9.786-16.806,17.779-26.401,18.115c-4.197,0.146-7.611-3.037-7.756-7.234c-0.027-0.749-0.047-1.348,0.227-2.108
	c2.672-0.844,7.268-2.505,11.84-4.766c4.283-1.951,7.803-4.325,10.273-6.663c3.627-3.578,5.445-7.395,5.303-11.441l-0.006-0.148
	c-0.348-5.691-5.002-10.031-10.703-9.982l-0.148,0.006c-5.098,0.176-9.666,2.588-13.422,6.771c-2.738,3.248-4.268,6.753-5.109,8.433
	c0,0,0,0-5.575,12.202c-1.673,3.661-1.745,5.914-1.673,8.014c0.32,9.144,7.92,16.232,17.064,15.914
	c8.094-0.285,16.363-4.175,24.068-11.348c3.456-3.064,6.644-6.727,9.465-10.72l0.008,0.005c4.027-5.5,7.24-12.555,7.24-12.555
	c2.373-4.812,5.648-9.479,10.898-9.508c2.398-0.012,4.51,2.077,4.523,4.477c0.012,2.55,1.973,4.49,4.523,4.477
	c2.549-0.014,4.49-1.974,4.477-4.523C386.482,156.61,380.451,150.644,372.951,150.683z M319.734,171.291
	c2.23-4.881,5.367-9.644,10.613-9.825c0.748-0.027,1.525,0.696,1.553,1.445c0.098,2.849-3.68,6.433-10.471,9.672
	c-0.885,0.48-1.918,0.968-2.951,1.454L319.734,171.291z"/>
<path fill="#1D1D1B" stroke="none" stroke-width="4" stroke-miterlimit="10" d="M267.769,188.149
	c2.166,9.529,6.027,15.026,6.264,15.354c0.94,1.168,2.316,1.87,3.815,1.817c0.899-0.031,1.638-0.358,2.521-0.838
	c0.586-0.473,1.164-1.092,1.441-1.701c0,0,6.971-15.252,16.656-30.148c11.965-18.428,23.156-28.875,31.252-29.156
	c2.547-0.09,4.43-2.106,4.34-4.655c-0.09-2.548-2.107-4.429-4.65-4.339c-6.598,0.229-13.816,4.084-21.221,11.246
	c-5.514,5.444-11.408,12.854-17.389,22.069c-5.41,8.443-9.924,16.705-13.019,22.666c-1.163-3.26-2.062-7.431-2.388-12.522
	l2.369-5.187c1.255-2.745,2.21-5.479,2.73-7.749c0.779-3.48,0.541-6.023-0.727-7.93c-1.112-1.762-2.941-2.6-4.896-2.682
	c-0.449,0.017-0.449,0.017-0.6,0.021c-2.094,0.225-3.861,1.188-5.143,3.182c-0.856,1.23-1.549,2.906-2.076,5.025
	c-0.733,4.479-0.833,8.504-0.749,12.457c-8.575,13.607-22.971,22.442-38.238,22.975c-9.144,0.318-16.745-6.77-17.063-15.914
	c-0.436-12.442,9.258-22.836,21.699-23.271c2.549-0.089,4.43-2.104,4.34-4.654c-0.037-1.049-0.367-1.938-0.994-2.667
	c-1.096-1.312-3.795-5.57-3.922-9.169c-0.377-10.792,8.016-19.79,18.808-20.167c5.846-0.205,10.655,4.28,10.858,10.127
	c0.205,5.846-4.279,10.655-10.125,10.859c-2.549,0.089-4.43,2.105-4.34,4.654c0.088,2.547,2.104,4.429,4.652,4.34
	c10.793-0.377,19.184-9.375,18.807-20.168c-0.377-10.793-9.375-19.185-20.168-18.808c-15.738,0.55-28.035,13.736-27.486,29.476
	c0.106,3,0.953,5.82,2.093,8.332c-13.831,3.636-23.735,16.589-23.216,31.43c0.49,14.091,12.281,25.085,26.373,24.593
	c10.343-0.36,20.427-3.864,29.365-10.03C261.418,194.467,264.776,191.488,267.769,188.149z"/>
</svg>
